<svg width="18" height="18" viewBox="0 0 18 18" fill="none" xmlns="http://www.w3.org/2000/svg">
<path d="M14.625 1.125C15.2473 1.125 15.75 1.62773 15.75 2.25L15.75 15.75C15.75 16.3723 15.2473 16.875 14.625 16.875C14.0027 16.875 13.5 16.3723 13.5 15.75L13.5 2.25C13.5 1.62773 14.0027 1.125 14.625 1.125ZM9 1.125C9.62227 1.125 10.125 1.62773 10.125 2.25L10.125 15.75C10.125 16.3723 9.62227 16.875 9 16.875C8.37773 16.875 7.875 16.3723 7.875 15.75L7.875 2.25C7.875 1.62773 8.37773 1.125 9 1.125ZM3.375 16.875C2.75273 16.875 2.25 16.3723 2.25 15.75L2.25 2.25C2.25 1.62773 2.75273 1.125 3.375 1.125C3.99727 1.125 4.5 1.62773 4.5 2.25L4.5 15.75C4.5 16.3723 3.99727 16.875 3.375 16.875Z" fill="#E1E8EF"/>
</svg>
